<?xml version="1.0" encoding="UTF-8"?>
<svg viewBox="0 0 200 200" xmlns="http://www.w3.org/2000/svg">
  <!-- Main newspaper -->
  <path d="M15,30 L185,30 L185,170 C185,170 150,145 120,170 C90,195 50,170 50,170 L15,170 Z" fill="#f0f9ff" stroke="#0369a1" stroke-width="4"/>
  
  <!-- Newspaper fold line - straight -->
  <path d="M100,30 L100,170" fill="none" stroke="#0369a1" stroke-width="2" stroke-dasharray="5"/>
  
  <!-- NEWSWORLD title -->
  <text x="100" y="25" font-family="Arial, sans-serif" font-weight="bold" font-size="16" fill="#0c4a6e" text-anchor="middle">NEWSWORLD</text>
  
  <!-- Left side content (static) -->
  <rect x="25" y="45" width="65" height="18" rx="2" ry="2" fill="#0c4a6e"/>
  <rect x="25" y="70" width="55" height="10" rx="2" ry="2" fill="#075985"/>
  <rect x="25" y="90" width="65" height="8" rx="1" ry="1" fill="#0284c7"/>
  <rect x="25" y="105" width="65" height="8" rx="1" ry="1" fill="#0284c7"/>
  <rect x="25" y="120" width="65" height="8" rx="1" ry="1" fill="#0284c7"/>
  <rect x="25" y="135" width="65" height="8" rx="1" ry="1" fill="#0284c7"/>
  <rect x="25" y="150" width="50" height="8" rx="1" ry="1" fill="#0284c7"/>
  
  <!-- Right side content (will be animated) -->
  <rect x="110" y="45" width="65" height="60" rx="2" ry="2" fill="#bae6fd" stroke="#0369a1" stroke-width="2"/>
  <rect x="110" y="115" width="65" height="8" rx="1" ry="1" fill="#0284c7"/>
  <rect x="110" y="130" width="65" height="8" rx="1" ry="1" fill="#0284c7"/>
  <rect x="110" y="145" width="65" height="8" rx="1" ry="1" fill="#0284c7"/>
  <rect x="110" y="160" width="50" height="8" rx="1" ry="1" fill="#0284c7"/>
</svg>